<svg xmlns="http://www.w3.org/2000/svg" viewBox="0 0 330 340" width="330" height="340" role="img" aria-label="Neres Restoration"><g transform="translate(2,2) scale(0.96) rotate(-4 170 180)"><mask id="tcffffff"><rect x="-40" y="-40" width="420" height="440" fill="#fff"/><g transform="translate(112,126) rotate(-35)" fill="#000" stroke="#000" stroke-width="32" stroke-linejoin="round" stroke-linecap="round"><path d="M-58 0 Q0 -12 58 0 Q36 106 0 190 Q-36 106 -58 0 Z"/><rect x="-21" y="-60" width="24" height="15" rx="6"/><rect x="-23.5" y="-152" width="29" height="95" rx="14.5"/><path d="M0 2 C0 -18 -9 -26 -9 -46" fill="none" stroke-width="46"/></g></mask><g mask="url(#tcffffff)"><g fill="#ffffff" stroke="#ffffff" stroke-width="13" stroke-linejoin="round"><rect x="222" y="268" width="74" height="46" rx="3" transform="rotate(-3 259.0 291.0)"/><rect x="139" y="268" width="74" height="46" rx="3" transform="rotate(-3 176.0 291.0)"/><rect x="56" y="268" width="74" height="46" rx="3" transform="rotate(-3 93.0 291.0)"/><rect x="182" y="213" width="74" height="46" rx="3" transform="rotate(-3 219.0 236.0)"/><rect x="99" y="213" width="74" height="46" rx="3" transform="rotate(-3 136.0 236.0)"/><rect x="16" y="213" width="74" height="46" rx="3" transform="rotate(-3 53.0 236.0)"/><rect x="222" y="158" width="74" height="46" rx="3" transform="rotate(-3 259.0 181.0)"/><rect x="139" y="158" width="74" height="46" rx="3" transform="rotate(-3 176.0 181.0)"/><rect x="182" y="103" width="74" height="46" rx="3" transform="rotate(-3 219.0 126.0)"/></g><g fill="#c1202b"><rect x="222" y="268" width="74" height="46" rx="3" transform="rotate(-3 259.0 291.0)"/><rect x="139" y="268" width="74" height="46" rx="3" transform="rotate(-3 176.0 291.0)"/><rect x="56" y="268" width="74" height="46" rx="3" transform="rotate(-3 93.0 291.0)"/><rect x="182" y="213" width="74" height="46" rx="3" transform="rotate(-3 219.0 236.0)"/><rect x="99" y="213" width="74" height="46" rx="3" transform="rotate(-3 136.0 236.0)"/><rect x="16" y="213" width="74" height="46" rx="3" transform="rotate(-3 53.0 236.0)"/><rect x="222" y="158" width="74" height="46" rx="3" transform="rotate(-3 259.0 181.0)"/><rect x="139" y="158" width="74" height="46" rx="3" transform="rotate(-3 176.0 181.0)"/><rect x="182" y="103" width="74" height="46" rx="3" transform="rotate(-3 219.0 126.0)"/></g></g><g transform="translate(112,126) rotate(-35)" fill="none" stroke="#ffffff" stroke-width="10" stroke-linejoin="round" stroke-linecap="round"><path d="M-58 0 Q0 -12 58 0 Q36 106 0 190 Q-36 106 -58 0 Z"/><path d="M0 2 C0 -18 -9 -26 -9 -46"/><rect x="-21" y="-60" width="24" height="15" rx="6"/><rect x="-23.5" y="-152" width="29" height="95" rx="14.5"/><path d="M0 10 L0 146" stroke-width="5"/></g></g></svg>